<?xml version="1.0" encoding="UTF-8"?>
<svg width="62px" height="62px" viewBox="0 0 62 62" version="1.1" xmlns="http://www.w3.org/2000/svg" xmlns:xlink="http://www.w3.org/1999/xlink">
    <!-- Generator: Sketch 42 (36781) - http://www.bohemiancoding.com/sketch -->
    <title>小孩默认头像</title>
    <desc>Created with Sketch.</desc>
    <defs>
        <path d="M30,60 C46.5685425,60 60,46.5685425 60,30 C60,13.4314575 46.5685425,0 30,0 C13.4314575,0 0,13.4314575 0,30 C0,46.5685425 13.4314575,60 30,60 Z" id="path-1"></path>
        <polygon id="path-3" points="31.3164348 0.606463768 0.920456522 0.606463768 0.920456522 12.6063507 31.3164348 12.6063507"></polygon>
    </defs>
    <g id="Page-1" stroke="none" stroke-width="1" fill="none" fill-rule="evenodd">
        <g id="12绑定手机添加家庭成员" transform="translate(-299.000000, -341.000000)">
            <g id="宝宝信息" transform="translate(0.000000, 280.000000)">
                <g id="小孩默认头像" transform="translate(300.000000, 62.000000)">
                    <path d="M30,60 C46.5685425,60 60,46.5685425 60,30 C60,13.4314575 46.5685425,0 30,0 C13.4314575,0 0,13.4314575 0,30 C0,46.5685425 13.4314575,60 30,60 Z" id="Oval-80" stroke="#C8C8C8" stroke-width="2" fill="#F1F1F1"></path>
                    <mask id="mask-2" fill="white">
                        <use xlink:href="#path-1"></use>
                    </mask>
                    <use id="Mask" fill="#F1F1F1" xlink:href="#path-1"></use>
                    <g id="Page-1" mask="url(#mask-2)">
                        <g transform="translate(13.000000, 13.000000)">
                            <path d="M28.329625,48.1654923 L5.888375,48.1654923 C5.448375,48.1654923 5.088375,47.8036462 5.088375,47.3613897 L5.088375,44.578441 C5.088375,38.6670308 9.900875,33.8298513 15.782125,33.8298513 L18.673375,33.8298513 C24.424625,33.8298513 29.129625,38.5589795 29.129625,44.3397231 L29.129625,47.3613897 C29.129625,47.8036462 28.769625,48.1654923 28.329625,48.1654923 L28.329625,48.1654923 Z" id="Stroke-1" stroke="#C8C8C8" stroke-width="1" stroke-linecap="round" fill="#D8D8D8" fill-rule="evenodd"></path>
                            <path d="M17.425625,36.6458436 L17.051875,36.6458436 C16.055625,36.6458436 15.248125,35.8342026 15.248125,34.8328436 L15.248125,30.4115359 C15.248125,29.4101769 16.055625,28.5985359 17.051875,28.5985359 L17.425625,28.5985359 C18.421875,28.5985359 19.229375,29.4101769 19.229375,30.4115359 L19.229375,34.8328436 C19.229375,35.8342026 18.421875,36.6458436 17.425625,36.6458436" id="Fill-3" stroke="none" fill="#FEFEFE" fill-rule="evenodd"></path>
                            <path d="M17.425625,36.6458436 L17.051875,36.6458436 C16.055625,36.6458436 15.248125,35.8342026 15.248125,34.8328436 L15.248125,30.4115359 C15.248125,29.4101769 16.055625,28.5985359 17.051875,28.5985359 L17.425625,28.5985359 C18.421875,28.5985359 19.229375,29.4101769 19.229375,30.4115359 L19.229375,34.8328436 C19.229375,35.8342026 18.421875,36.6458436 17.425625,36.6458436 L17.425625,36.6458436 Z" id="Stroke-5" stroke="#C8C8C8" stroke-width="1" stroke-linecap="round" fill="none"></path>
                            <path d="M4.455,18.7354641 C4.455,11.4281821 10.1375,5.50295128 17.14625,5.50295128 C24.15625,5.50295128 29.8375,11.4281821 29.8375,18.7354641 C29.8375,26.0427462 24.15625,31.9679769 17.14625,31.9679769 C10.1375,31.9679769 4.455,26.0427462 4.455,18.7354641" id="Fill-7" stroke="none" fill="#FEFEFE" fill-rule="evenodd"></path>
                            <path d="M4.455,18.7354641 C4.455,11.4281821 10.1375,5.50295128 17.14625,5.50295128 C24.15625,5.50295128 29.8375,11.4281821 29.8375,18.7354641 C29.8375,26.0427462 24.15625,31.9679769 17.14625,31.9679769 C10.1375,31.9679769 4.455,26.0427462 4.455,18.7354641 L4.455,18.7354641 Z" id="Stroke-9" stroke="#C8C8C8" stroke-width="1" fill="none"></path>
                            <path d="M4.8885,22.6965487 C2.40975,22.6965487 0.39975,20.9224974 0.39975,18.7350872 C0.39975,16.5476769 2.40975,14.7748821 4.8885,14.7748821" id="Stroke-11" stroke="#C8C8C8" stroke-width="1" fill="none"></path>
                            <path d="M29.490875,22.6965487 C31.880875,22.6965487 33.818375,20.9224974 33.818375,18.7350872 C33.818375,16.5476769 31.880875,14.7748821 29.490875,14.7748821" id="Stroke-13" stroke="#C8C8C8" stroke-width="1" fill="none"></path>
                            <g id="Group-17" stroke="none" stroke-width="1" fill="none" fill-rule="evenodd" transform="translate(1.250000, 0.954369)">
                                <mask id="mask-4" fill="white">
                                    <use xlink:href="#path-3"></use>
                                </mask>
                                <g id="Clip-16"></g>
                                <path d="M31.3164348,11.7584377 C28.7065435,5.18391594 22.8650217,0.606321739 16.0767609,0.606321739 C9.36056522,0.606321739 3.5685,5.09017681 0.920456522,11.5553362 L7.45436957,11.7584377 L9.95686957,7.41945217 L10.5404565,12.6063507 L31.3164348,11.7584377 Z" id="Fill-15" fill="#C9C9C9" mask="url(#mask-4)"></path>
                            </g>
                            <path d="M13.9005,18.3987462 C13.9005,19.6526436 13.38675,20.6678231 12.753,20.6678231 C12.118,20.6678231 11.60425,19.6526436 11.60425,18.3987462 C11.60425,17.1448487 12.118,16.1296692 12.753,16.1296692 C13.38675,16.1296692 13.9005,17.1448487 13.9005,18.3987462" id="Fill-18" stroke="none" fill="#C8C8C8" fill-rule="evenodd"></path>
                            <path d="M22.472625,18.6295487 C22.472625,19.8834462 21.872625,20.8986256 21.132625,20.8986256 C20.393875,20.8986256 19.793875,19.8834462 19.793875,18.6295487 C19.793875,17.3756513 20.393875,16.3604718 21.132625,16.3604718 C21.872625,16.3604718 22.472625,17.3756513 22.472625,18.6295487" id="Fill-20" stroke="none" fill="#C8C8C8" fill-rule="evenodd"></path>
                            <path d="M24.959125,23.3613154 C23.444125,26.1317 20.512875,28.0087769 17.146625,28.0087769 C13.780375,28.0087769 10.850375,26.1317 9.334125,23.3625718" id="Stroke-22" stroke="#C8C8C8" stroke-width="1" stroke-linecap="round" fill="none"></path>
                        </g>
                    </g>
                </g>
            </g>
        </g>
    </g>
</svg>