<?xml version="1.0" encoding="UTF-8"?>
<svg width="62px" height="62px" viewBox="0 0 62 62" version="1.1" xmlns="http://www.w3.org/2000/svg" xmlns:xlink="http://www.w3.org/1999/xlink">
    <!-- Generator: Sketch 42 (36781) - http://www.bohemiancoding.com/sketch -->
    <title>妈妈</title>
    <desc>Created with Sketch.</desc>
    <defs>
        <circle id="path-1" cx="30" cy="30" r="30"></circle>
    </defs>
    <g id="Page-1" stroke="none" stroke-width="1" fill="none" fill-rule="evenodd">
        <g id="55我的家属（可编辑添加）" transform="translate(-14.000000, -138.000000)">
            <g id="妈妈" transform="translate(15.448397, 139.000000)">
                <circle id="Oval-112" stroke="#979797" fill="#F0F0F0" cx="30" cy="30" r="30"></circle>
                <mask id="mask-2" fill="white">
                    <use xlink:href="#path-1"></use>
                </mask>
                <use id="Mask" fill="#F0F0F0" xlink:href="#path-1"></use>
                <g id="Page-1" mask="url(#mask-2)">
                    <g transform="translate(10.000000, 10.000000)">
                        <path d="M20.1902222,38.2598889 L20.1902222,38.2598889 C13.8013333,38.2598889 8.57466667,33.0332222 8.57466667,26.6443333 L8.57466667,11.4076667 C8.57466667,9.66433333 10.0013333,8.23766667 11.7457778,8.23766667 L28.9791111,8.23766667 C30.7235556,8.23766667 32.1502222,9.66433333 32.1502222,11.4076667 L32.1502222,26.2998889 C32.1502222,32.8776667 26.768,38.2598889 20.1902222,38.2598889" id="Fill-1" stroke="none" fill="#FEFEFE" fill-rule="evenodd"></path>
                        <path d="M20.1902222,38.2598889 L20.1902222,38.2598889 C13.8013333,38.2598889 8.57466667,33.0332222 8.57466667,26.6443333 L8.57466667,11.4076667 C8.57466667,9.66433333 10.0013333,8.23766667 11.7457778,8.23766667 L28.9791111,8.23766667 C30.7235556,8.23766667 32.1502222,9.66433333 32.1502222,11.4076667 L32.1502222,26.2998889 C32.1502222,32.8776667 26.768,38.2598889 20.1902222,38.2598889 L20.1902222,38.2598889 Z" id="Stroke-3" stroke="#C4C3C3" stroke-width="0.9" fill="none"></path>
                        <path d="M34.8597778,71.3583333 L5.17533333,71.3583333 C2.61422222,71.3583333 0.517555556,69.2627778 0.517555556,66.7005556 L0.517555556,45.1372222 C0.517555556,40.5372222 4.28088889,36.7738889 8.88088889,36.7738889 L31.7808889,36.7738889 C36.3797778,36.7738889 40.1431111,40.5372222 40.1431111,45.1372222 L40.1431111,66.075 C40.1431111,68.9805556 37.7653333,71.3583333 34.8597778,71.3583333" id="Fill-5" stroke="none" fill="#FEFEFE" fill-rule="evenodd"></path>
                        <path d="M34.8597778,71.3583333 L5.17533333,71.3583333 C2.61422222,71.3583333 0.517555556,69.2627778 0.517555556,66.7005556 L0.517555556,45.1372222 C0.517555556,40.5372222 4.28088889,36.7738889 8.88088889,36.7738889 L31.7808889,36.7738889 C36.3797778,36.7738889 40.1431111,40.5372222 40.1431111,45.1372222 L40.1431111,66.075 C40.1431111,68.9805556 37.7653333,71.3583333 34.8597778,71.3583333 L34.8597778,71.3583333 Z" id="Stroke-7" stroke="#C4C3C3" stroke-width="0.932" fill="none"></path>
                        <path d="M25.0537778,36.7743333 L25.0537778,29.9721111 C25.0537778,28.2898889 23.0382222,26.9132222 20.576,26.9132222 L20.576,26.9132222 C18.1126667,26.9132222 16.0971111,28.2898889 16.0971111,29.9721111 L16.0971111,36.7743333 L12.5971111,36.7743333 C12.5971111,36.7743333 13.406,43.3887778 20.3626667,43.481 C20.3626667,43.481 27.0415556,43.5021111 28.3382222,36.7743333 L25.0537778,36.7743333 Z" id="Fill-9" stroke="none" fill="#FEFEFE" fill-rule="evenodd"></path>
                        <path d="M25.0537778,36.7743333 L25.0537778,29.9721111 C25.0537778,28.2898889 23.0382222,26.9132222 20.576,26.9132222 L20.576,26.9132222 C18.1126667,26.9132222 16.0971111,28.2898889 16.0971111,29.9721111 L16.0971111,36.7743333 L12.5971111,36.7743333 C12.5971111,36.7743333 13.406,43.3887778 20.3626667,43.481 C20.3626667,43.481 27.0415556,43.5021111 28.3382222,36.7743333 L25.0537778,36.7743333 L25.0537778,36.7743333 Z" id="Stroke-11" stroke="#C4C3C3" stroke-width="1" fill="none"></path>
                        <g id="Group-16" stroke="none" stroke-width="1" fill="none" fill-rule="evenodd" transform="translate(28.888889, 15.209222)">
                            <path d="M0.632666667,7.91266667 L1.13711111,7.91266667 C2.61711111,7.91266667 3.82711111,7.04488889 3.82711111,5.98488889 L3.82711111,2.00711111 C3.82711111,0.947111111 2.61711111,0.0793333333 1.13711111,0.0793333333 L0.632666667,0.0793333333" id="Fill-13" fill="#FEFEFE"></path>
                            <path d="M0.632666667,7.91266667 L1.13711111,7.91266667 C2.61711111,7.91266667 3.82711111,7.04488889 3.82711111,5.98488889 L3.82711111,2.00711111 C3.82711111,0.947111111 2.61711111,0.0793333333 1.13711111,0.0793333333 L0.632666667,0.0793333333" id="Stroke-15" stroke="#C4C3C3" stroke-width="1.025"></path>
                        </g>
                        <g id="Group-20" stroke="none" stroke-width="1" fill="none" fill-rule="evenodd" transform="translate(7.777778, 15.209222)">
                            <path d="M3.48666667,7.91266667 L2.98222222,7.91266667 C1.50222222,7.91266667 0.292222222,7.04488889 0.292222222,5.98488889 L0.292222222,2.00711111 C0.292222222,0.947111111 1.50222222,0.0793333333 2.98222222,0.0793333333 L3.48666667,0.0793333333" id="Fill-17" fill="#FEFEFE"></path>
                            <path d="M3.48666667,7.91266667 L2.98222222,7.91266667 C1.50222222,7.91266667 0.292222222,7.04488889 0.292222222,5.98488889 L0.292222222,2.00711111 C0.292222222,0.947111111 1.50222222,0.0793333333 2.98222222,0.0793333333 L3.48666667,0.0793333333" id="Stroke-19" stroke="#C4C3C3" stroke-width="1.025"></path>
                        </g>
                        <path d="M20.4155556,31.3577778 L20.4155556,31.3577778 C15.1066667,31.3577778 10.7622222,27.0144444 10.7622222,21.7055556 L10.7622222,12.5388889 C10.7622222,7.22888889 15.1066667,2.88555556 20.4155556,2.88555556 L20.4155556,2.88555556 C25.7244444,2.88555556 30.0677778,7.22888889 30.0677778,12.5388889 L30.0677778,21.7055556 C30.0677778,27.0144444 25.7244444,31.3577778 20.4155556,31.3577778" id="Fill-21" stroke="none" fill="#FEFEFE" fill-rule="evenodd"></path>
                        <path d="M20.4155556,31.3577778 L20.4155556,31.3577778 C15.1066667,31.3577778 10.7622222,27.0144444 10.7622222,21.7055556 L10.7622222,12.5388889 C10.7622222,7.22888889 15.1066667,2.88555556 20.4155556,2.88555556 L20.4155556,2.88555556 C25.7244444,2.88555556 30.0677778,7.22888889 30.0677778,12.5388889 L30.0677778,21.7055556 C30.0677778,27.0144444 25.7244444,31.3577778 20.4155556,31.3577778 L20.4155556,31.3577778 Z" id="Stroke-23" stroke="#C4C3C3" stroke-width="1" fill="none"></path>
                        <path d="M14.8372222,17.2967778 C14.8372222,16.5678889 15.4283333,15.9778889 16.1561111,15.9778889 C16.885,15.9778889 17.4761111,16.5678889 17.4761111,17.2967778 C17.4761111,18.0256667 16.885,18.6156667 16.1561111,18.6156667 C15.4283333,18.6156667 14.8372222,18.0256667 14.8372222,17.2967778" id="Fill-25" stroke="none" fill="#C4C3C3" fill-rule="evenodd"></path>
                        <path d="M23.4588889,17.2967778 C23.4588889,16.5678889 24.05,15.9778889 24.7777778,15.9778889 C25.5066667,15.9778889 26.0977778,16.5678889 26.0977778,17.2967778 C26.0977778,18.0256667 25.5066667,18.6156667 24.7777778,18.6156667 C24.05,18.6156667 23.4588889,18.0256667 23.4588889,17.2967778" id="Fill-27" stroke="none" fill="#C4C3C3" fill-rule="evenodd"></path>
                        <path d="M22.4915556,21.3481111 C22.216,21.9014444 21.666,22.2814444 21.0371111,22.2814444 L20.0848889,22.2814444 C19.436,22.2814444 18.8715556,21.8781111 18.6048889,21.2958889" id="Stroke-29" stroke="#C4C3C3" stroke-width="0.973" stroke-linecap="round" fill="none"></path>
                        <path d="M8.07088889,13.6011111 C8.06088889,14.3755556 8.132,15.1311111 8.25755556,15.8688889 C13.7575556,14.64 17.9053333,9.77666667 17.9797778,3.89555556 C17.9897778,3.12111111 17.9186667,2.36444444 17.7931111,1.62777778 C12.2931111,2.85666667 8.14533333,7.72 8.07088889,13.6011111" id="Fill-31" stroke="none" fill="#FEFEFE" fill-rule="evenodd"></path>
                        <path d="M8.07088889,13.6011111 C8.06088889,14.3755556 8.132,15.1311111 8.25755556,15.8688889 C13.7575556,14.64 17.9053333,9.77666667 17.9797778,3.89555556 C17.9897778,3.12111111 17.9186667,2.36444444 17.7931111,1.62777778 C12.2931111,2.85666667 8.14533333,7.72 8.07088889,13.6011111 L8.07088889,13.6011111 Z" id="Stroke-33" stroke="#C4C3C3" stroke-width="0.841" fill="none"></path>
                        <path d="M30.4537778,13.0298889 C31.406,13.0298889 32.3337778,12.931 33.2393333,12.7665556 C32.8137778,5.92988889 27.1504444,0.512111111 20.2071111,0.512111111 C18.5315556,0.512111111 16.9348889,0.839888889 15.4615556,1.41433333 C17.1893333,8.091 23.2371111,13.0298889 30.4537778,13.0298889" id="Fill-35" stroke="none" fill="#FEFEFE" fill-rule="evenodd"></path>
                        <path d="M30.4537778,13.0298889 C31.406,13.0298889 32.3337778,12.931 33.2393333,12.7665556 C32.8137778,5.92988889 27.1504444,0.512111111 20.2071111,0.512111111 C18.5315556,0.512111111 16.9348889,0.839888889 15.4615556,1.41433333 C17.1893333,8.091 23.2371111,13.0298889 30.4537778,13.0298889 L30.4537778,13.0298889 Z" id="Stroke-37" stroke="#C4C3C3" stroke-width="0.923" fill="none"></path>
                        <g id="Group-42" stroke="none" stroke-width="1" fill="none" fill-rule="evenodd" transform="translate(5.555556, 48.542556)">
                            <path d="M5.92588889,9.07955556 C1.98033333,8.25844444 -0.553,4.394 0.267,0.448444444" id="Fill-39" fill="#FEFEFE"></path>
                            <path d="M5.92588889,9.07955556 C1.98033333,8.25844444 -0.553,4.394 0.267,0.448444444" id="Stroke-41" stroke="#C4C3C3" stroke-width="0.9"></path>
                        </g>
                        <g id="Group-46" stroke="none" stroke-width="1" fill="none" fill-rule="evenodd" transform="translate(28.888889, 48.542556)">
                            <path d="M0.114444444,9.07955556 C4.06,8.25844444 6.59333333,4.394 5.77333333,0.448444444" id="Fill-43" fill="#FEFEFE"></path>
                            <path d="M0.114444444,9.07955556 C4.06,8.25844444 6.59333333,4.394 5.77333333,0.448444444" id="Stroke-45" stroke="#C4C3C3" stroke-width="0.9"></path>
                        </g>
                        <g id="Group-50" stroke="none" stroke-width="1" fill="none" fill-rule="evenodd" transform="translate(15.555556, 24.098111)">
                            <path d="M8.95277778,0.403 C8.34611111,2.07633333 6.74277778,3.27188889 4.86055556,3.27188889 C2.97722222,3.27188889 1.37388889,2.07633333 0.767222222,0.401888889" id="Fill-47" fill="#FEFEFE"></path>
                            <path d="M8.95277778,0.403 C8.34611111,2.07633333 6.74277778,3.27188889 4.86055556,3.27188889 C2.97722222,3.27188889 1.37388889,2.07633333 0.767222222,0.401888889" id="Stroke-49" stroke="#C4C3C3" stroke-linecap="round"></path>
                        </g>
                        <path d="M13.7554444,15.2893333 C15.0354444,13.9171111 17.1854444,13.8426667 18.5576667,15.1226667" id="Stroke-51" stroke="#C4C3C3" stroke-width="1" stroke-linecap="round" fill="none"></path>
                        <path d="M27.1795556,15.2893333 C25.8995556,13.9171111 23.7495556,13.8426667 22.3773333,15.1226667" id="Stroke-53" stroke="#C4C3C3" stroke-width="1" stroke-linecap="round" fill="none"></path>
                    </g>
                </g>
            </g>
        </g>
    </g>
</svg>