<?xml version="1.0" encoding="utf-8"?>
<!-- Generator: Adobe Illustrator 16.0.0, SVG Export Plug-In . SVG Version: 6.00 Build 0)  -->
<!DOCTYPE svg PUBLIC "-//W3C//DTD SVG 1.1//EN" "http://www.w3.org/Graphics/SVG/1.1/DTD/svg11.dtd">
<svg version="1.1" id="图层_1" xmlns="http://www.w3.org/2000/svg" xmlns:xlink="http://www.w3.org/1999/xlink" x="0px" y="0px"
	 width="104px" height="104px" viewBox="0 0 104 104" enable-background="new 0 0 104 104" xml:space="preserve">
<path fill="#070606" d="M52,0C23.281,0,0,23.281,0,51.999C0,80.719,23.281,104,52,104c28.719,0,52-23.281,52-52.001
	C104,23.281,80.719,0,52,0z M52,101C24.981,101,3,79.019,3,51.999C3,24.981,24.981,3,52,3c27.019,0,49,21.981,49,48.999
	C101,79.019,79.019,101,52,101z"/>
<g>
	<g>
		<polygon fill-rule="evenodd" clip-rule="evenodd" fill="#070606" points="92,49.999 54,49.999 54,12 50,12 50,49.999 12,49.999 
			12,54 50,54 50,92 54,92 54,54 92,54 		"/>
	</g>
</g>
</svg>
