<?xml version="1.0" encoding="utf-8"?>
<!-- Generator: Adobe Illustrator 16.0.0, SVG Export Plug-In . SVG Version: 6.00 Build 0)  -->
<!DOCTYPE svg PUBLIC "-//W3C//DTD SVG 1.1//EN" "http://www.w3.org/Graphics/SVG/1.1/DTD/svg11.dtd">
<svg version="1.1" id="图层_1" xmlns="http://www.w3.org/2000/svg" xmlns:xlink="http://www.w3.org/1999/xlink" x="0px" y="0px"
	 width="34px" height="34px" viewBox="0 0 34 34" enable-background="new 0 0 34 34" xml:space="preserve">
<path fill-rule="evenodd" clip-rule="evenodd" fill="#E1E1E1" d="M17,0C7.611,0,0,7.611,0,17s7.611,17,17,17s17-7.611,17-17
	S26.389,0,17,0z M24.586,22.59C24.842,22.846,25,23.199,25,23.588C25,24.369,24.367,25,23.588,25c-0.391,0-0.742-0.158-0.998-0.414
	L17,18.996l-5.59,5.59C11.154,24.842,10.801,25,10.412,25C9.631,25,9,24.369,9,23.588c0-0.389,0.158-0.742,0.413-0.998l5.59-5.59
	l-5.59-5.589C9.158,11.155,9,10.802,9,10.412C9,9.632,9.631,9,10.412,9c0.39,0,0.742,0.158,0.998,0.413l5.59,5.59l5.59-5.59
	C22.846,9.159,23.197,9,23.588,9C24.367,9,25,9.632,25,10.412c0,0.391-0.158,0.743-0.414,0.999L18.996,17L24.586,22.59z"/>
</svg>
