<?xml version="1.0" encoding="utf-8"?>
<!-- Generator: Adobe Illustrator 16.0.0, SVG Export Plug-In . SVG Version: 6.00 Build 0)  -->
<!DOCTYPE svg PUBLIC "-//W3C//DTD SVG 1.1//EN" "http://www.w3.org/Graphics/SVG/1.1/DTD/svg11.dtd">
<svg version="1.1" id="图层_1" xmlns="http://www.w3.org/2000/svg" xmlns:xlink="http://www.w3.org/1999/xlink" x="0px" y="0px"
	 width="34px" height="34px" viewBox="0 0 34 34" enable-background="new 0 0 34 34" xml:space="preserve">
<g>
	<g>
		<path fill-rule="evenodd" clip-rule="evenodd" fill="#102E8E" d="M22.5,8.5v-3c0-1.243-0.779-2-2.051-2H13.55
			c-1.27,0-2.05,0.757-2.05,2v3h-6v2h2v17c0,1.802,1.128,3,3,3h13c1.829,0,3-1.112,3-3v-17h2v-2H22.5z M13.5,5.5h7l-0.042,3H13.5
			V5.5z M24.5,28.5h-15v-18h15V28.5z M15.5,12.5h-1.95l-0.05,13h2V12.5z M20.5,12.5h-2v13h2V12.5z"/>
	</g>
</g>
</svg>
