<?xml version="1.0" encoding="utf-8"?>
<!-- Generator: Adobe Illustrator 16.0.0, SVG Export Plug-In . SVG Version: 6.00 Build 0)  -->
<!DOCTYPE svg PUBLIC "-//W3C//DTD SVG 1.1//EN" "http://www.w3.org/Graphics/SVG/1.1/DTD/svg11.dtd">
<svg version="1.1" id="图层_1" xmlns="http://www.w3.org/2000/svg" xmlns:xlink="http://www.w3.org/1999/xlink" x="0px" y="0px"
	 width="34px" height="34px" viewBox="0 0 34 34" enable-background="new 0 0 34 34" xml:space="preserve">
<g>
	<g>
		<path fill-rule="evenodd" clip-rule="evenodd" fill="#303289" d="M26.283,15.382c-0.171-0.296-0.483-0.504-0.855-0.504
			c-0.371,0-0.682,0.207-0.854,0.5c-0.089-0.023-0.144-0.002-0.144,0.149v9.73c0,0.715-0.597,1.297-1.329,1.297H7.822
			c-0.732,0-1.329-0.582-1.329-1.297c0,0,0-16.865,0-17.514c0-0.716,0.596-1.297,1.329-1.297H19.78c0.076,0,0.115-0.015,0.138-0.038
			c0.065,0.013,0.126,0.038,0.194,0.038c0.55,0,0.997-0.436,0.997-0.973c0-0.537-0.447-0.973-0.997-0.973
			c-0.08,0-0.15,0.027-0.226,0.044C19.862,4.517,19.827,4.5,19.78,4.5H7.158C5.692,4.5,4.5,5.664,4.5,7.095v18.811
			c0,1.431,1.192,2.595,2.658,2.595h16.609c1.466,0,2.657-1.164,2.657-2.595V15.527C26.424,15.443,26.368,15.401,26.283,15.382z
			 M28.163,4.814c-0.413-0.355-1.043-0.316-1.407,0.087L11.387,21.938c-0.364,0.403-0.324,1.018,0.089,1.373
			c0.413,0.355,1.043,0.316,1.407-0.087l15.37-17.036C28.615,5.785,28.576,5.169,28.163,4.814z"/>
	</g>
</g>
</svg>
