<?xml version="1.0" encoding="utf-8"?>
<!-- Generator: Adobe Illustrator 16.0.0, SVG Export Plug-In . SVG Version: 6.00 Build 0)  -->
<!DOCTYPE svg PUBLIC "-//W3C//DTD SVG 1.1//EN" "http://www.w3.org/Graphics/SVG/1.1/DTD/svg11.dtd">
<svg version="1.1" id="图层_1" xmlns="http://www.w3.org/2000/svg" xmlns:xlink="http://www.w3.org/1999/xlink" x="0px" y="0px"
	 width="34px" height="34px" viewBox="0 0 34 34" enable-background="new 0 0 34 34" xml:space="preserve">
<path fill-rule="evenodd" clip-rule="evenodd" fill="#00A0E9" d="M32.422,18.99c-0.279,0.34-6.959,8.299-15.422,8.299
	S1.857,19.33,1.577,18.99l-0.58-0.701l0.58-0.702C1.857,17.248,8.536,9.289,17,9.289s15.143,7.959,15.422,8.298l0.58,0.702
	L32.422,18.99z M17,11.449c-6.125,0-11.42,4.966-13.198,6.839c1.782,1.871,7.087,6.841,13.198,6.841
	c6.125,0,11.42-4.966,13.198-6.839C28.416,16.418,23.111,11.449,17,11.449z M17,22.969c-2.497,0-4.528-2.1-4.528-4.68
	s2.031-4.68,4.528-4.68s4.528,2.1,4.528,4.68S19.496,22.969,17,22.969z M17,15.769c-1.344,0-2.438,1.131-2.438,2.521
	s1.094,2.52,2.438,2.52s2.438-1.13,2.438-2.52S18.344,15.769,17,15.769z"/>
</svg>
