<?xml version="1.0" encoding="utf-8"?>
<!-- Generator: Adobe Illustrator 16.0.0, SVG Export Plug-In . SVG Version: 6.00 Build 0)  -->
<!DOCTYPE svg PUBLIC "-//W3C//DTD SVG 1.1//EN" "http://www.w3.org/Graphics/SVG/1.1/DTD/svg11.dtd">
<svg version="1.1" id="图层_1" xmlns="http://www.w3.org/2000/svg" xmlns:xlink="http://www.w3.org/1999/xlink" x="0px" y="0px"
	 width="32px" height="32px" viewBox="0 0 32 32" enable-background="new 0 0 32 32" xml:space="preserve">
<path d="M23.499,19.503c-1.74,0-3.233,0.999-3.981,2.445l-8.038-4.884c0.323-0.621,0.523-1.315,0.523-2.063
	c0-0.511-0.104-0.993-0.26-1.451L20.165,9c0.824,0.916,2.006,1.503,3.334,1.503c2.486,0,4.5-2.015,4.5-4.5s-2.014-4.5-4.5-4.5
	c-2.484,0-4.5,2.015-4.5,4.5c0,0.436,0.081,0.849,0.197,1.247l-8.495,4.589c-0.815-0.825-1.946-1.338-3.199-1.338
	c-2.485,0-4.5,2.015-4.5,4.5s2.015,4.5,4.5,4.5c1.002,0,1.919-0.339,2.667-0.893l8.833,5.367c0,0.01-0.003,0.019-0.003,0.027
	c0,2.485,2.016,4.5,4.5,4.5c2.486,0,4.5-2.015,4.5-4.5S25.985,19.503,23.499,19.503z M23.499,3.503c1.379,0,2.5,1.122,2.5,2.5
	s-1.121,2.5-2.5,2.5s-2.5-1.122-2.5-2.5S22.12,3.503,23.499,3.503z M7.502,17.501c-1.378,0-2.5-1.122-2.5-2.5s1.122-2.5,2.5-2.5
	s2.5,1.122,2.5,2.5S8.881,17.501,7.502,17.501z M23.499,26.503c-1.379,0-2.5-1.121-2.5-2.5s1.121-2.5,2.5-2.5s2.5,1.121,2.5,2.5
	S24.878,26.503,23.499,26.503z"/>
</svg>
