<?xml version="1.0" encoding="utf-8"?>
<!-- Generator: Adobe Illustrator 16.0.0, SVG Export Plug-In . SVG Version: 6.00 Build 0)  -->
<!DOCTYPE svg PUBLIC "-//W3C//DTD SVG 1.1//EN" "http://www.w3.org/Graphics/SVG/1.1/DTD/svg11.dtd">
<svg version="1.1" id="图层_1" xmlns="http://www.w3.org/2000/svg" xmlns:xlink="http://www.w3.org/1999/xlink" x="0px" y="0px"
	 width="24px" height="24px" viewBox="0 0 24 24" enable-background="new 0 0 24 24" xml:space="preserve">
<path fill-rule="evenodd" clip-rule="evenodd" fill="#31337D" d="M11.859,22.859c-6.075,0-11-4.925-11-11s4.925-11,11-11
	s11,4.925,11,11S17.935,22.859,11.859,22.859z M11.859,2.922c-4.936,0-8.938,4.001-8.938,8.938c0,4.936,4.001,8.938,8.938,8.938
	c4.936,0,8.938-4.002,8.938-8.938C20.797,6.923,16.795,2.922,11.859,2.922z M16.328,12.891h-2.063h-1.375h-1.031l0,0
	c-0.57,0-1.031-0.462-1.031-1.031V5.672c0-0.569,0.461-1.031,1.031-1.031c0.569,0,1.031,0.462,1.031,1.031v5.156h1.375h2.063
	c0.569,0,1.031,0.462,1.031,1.031S16.897,12.891,16.328,12.891z"/>
</svg>
